<svg width="1584" height="396" viewBox="0 0 1584 396" fill="none" xmlns="http://www.w3.org/2000/svg">
<rect width="1584" height="396" fill="#F5F5F5"/>
<g id="Awesome banner" clip-path="url(#clip0_0_1)">
<rect width="1584" height="396" fill="url(#paint0_linear_0_1)"/>
<ellipse id="Ellipse 2" cx="323" cy="64" rx="285" ry="288" fill="url(#paint1_linear_0_1)" fill-opacity="0.1"/>
<g id="copyright">
<path d="M75.95 334.52L72.30 334.52L72.30 311.16L77.20 311.16L83.70 330.04Q83.60 329.02 83.50 327.62Q83.41 326.23 83.33 324.79Q83.25 323.35 83.25 322.23L83.25 311.16L86.90 311.16L86.90 334.52L82 334.52L75.57 315.64Q75.63 316.57 75.73 317.88Q75.82 319.19 75.89 320.57Q75.95 321.94 75.95 323.10L75.95 334.52M98.80 334.84Q96.46 334.84 94.67 333.96Q92.88 333.08 91.89 331.53Q90.90 329.98 90.90 327.93Q90.90 325.78 92.13 324.18Q93.36 322.58 95.34 322.17L95.34 322.10Q93.65 321.75 92.61 320.38Q91.57 319 91.57 317.11Q91.57 315.26 92.48 313.85Q93.39 312.44 95.02 311.64Q96.66 310.84 98.80 310.84Q100.94 310.84 102.59 311.64Q104.24 312.44 105.15 313.85Q106.06 315.26 106.06 317.11Q106.06 319 105.01 320.38Q103.95 321.75 102.26 322.10L102.26 322.17Q104.24 322.58 105.47 324.18Q106.70 325.78 106.70 327.93Q106.70 329.98 105.71 331.53Q104.72 333.08 102.93 333.96Q101.14 334.84 98.80 334.84M98.80 320.73Q100.30 320.73 101.23 319.82Q102.16 318.90 102.16 317.46Q102.16 315.99 101.23 315.08Q100.30 314.17 98.80 314.17Q97.30 314.17 96.37 315.08Q95.44 315.99 95.44 317.46Q95.44 318.90 96.37 319.82Q97.30 320.73 98.80 320.73M98.80 331.45Q100.56 331.45 101.68 330.42Q102.80 329.40 102.80 327.74Q102.80 326.04 101.68 325Q100.56 323.96 98.80 323.96Q97.04 323.96 95.92 325Q94.80 326.04 94.80 327.74Q94.80 329.40 95.92 330.42Q97.04 331.45 98.80 331.45M114.35 334.52L110.70 334.52L110.70 311.16L115.60 311.16L122.10 330.04Q122 329.02 121.90 327.62Q121.81 326.23 121.73 324.79Q121.65 323.35 121.65 322.23L121.65 311.16L125.30 311.16L125.30 334.52L120.40 334.52L113.97 315.64Q114.03 316.57 114.13 317.88Q114.22 319.19 114.29 320.57Q114.35 321.94 114.35 323.10" fill="white" fill-opacity="0.9"/>
<path d="M161.48 325.24L151.24 325.24L151.24 322.68L161.48 322.68" fill="white" fill-opacity="0.9"/>
<path d="M195.02 334.84Q191.82 334.84 189.96 333.05Q188.11 331.26 188.11 328.12L188.11 317.56Q188.11 314.42 189.96 312.63Q191.82 310.84 195.02 310.84Q198.15 310.84 200.01 312.65Q201.87 314.46 201.87 317.56L198.99 317.56Q198.99 315.58 197.95 314.50Q196.91 313.43 195.02 313.43Q193.13 313.43 192.06 314.50Q190.99 315.58 190.99 317.56L190.99 328.12Q190.99 330.10 192.06 331.18Q193.13 332.25 195.02 332.25Q196.91 332.25 197.95 331.18Q198.99 330.10 198.99 328.12L201.87 328.12Q201.87 331.22 200.01 333.03Q198.15 334.84 195.02 334.84" fill="white" fill-opacity="0.9"/>
<path d="M213.96 334.84Q210.83 334.84 209 333.02Q207.18 331.19 207.18 327.80L207.18 317.88Q207.18 314.49 209 312.66Q210.83 310.84 213.96 310.84Q217.10 310.84 218.92 312.66Q220.75 314.49 220.75 317.85L220.75 327.80Q220.75 331.19 218.92 333.02Q217.10 334.84 213.96 334.84M213.96 332.25Q215.85 332.25 216.86 331.18Q217.87 330.10 217.87 328.12L217.87 317.56Q217.87 315.58 216.86 314.50Q215.85 313.43 213.96 313.43Q212.11 313.43 211.08 314.50Q210.06 315.58 210.06 317.56L210.06 328.12Q210.06 330.10 211.08 331.18Q212.11 332.25 213.96 332.25" fill="white" fill-opacity="0.9"/>
<path d="M228.65 334.52L225.87 334.52L225.87 311.16L230.12 311.16L233.10 321.27L236.20 311.16L240.46 311.16L240.46 334.52L237.67 334.52L237.67 323.48Q237.67 321.91 237.72 319.88Q237.77 317.85 237.87 315.77Q237.96 313.69 238.09 312.02L234.31 324.09L231.82 324.09L228.20 312.31Q228.46 314.68 228.55 317.50Q228.65 320.31 228.65 323.48" fill="white" fill-opacity="0.9"/>
<path d="M247.85 334.52L245.07 334.52L245.07 311.16L249.32 311.16L252.30 321.27L255.40 311.16L259.66 311.16L259.66 334.52L256.87 334.52L256.87 323.48Q256.87 321.91 256.92 319.88Q256.97 317.85 257.07 315.77Q257.16 313.69 257.29 312.02L253.51 324.09L251.02 324.09L247.40 312.31Q247.66 314.68 247.75 317.50Q247.85 320.31 247.85 323.48" fill="white" fill-opacity="0.9"/>
<path d="M271.56 334.84Q268.30 334.84 266.57 333.03Q264.84 331.22 264.84 328.12L264.84 311.16L267.72 311.16L267.72 328.12Q267.72 330.04 268.67 331.16Q269.61 332.28 271.56 332.28Q273.48 332.28 274.44 331.16Q275.40 330.04 275.40 328.12L275.40 311.16L278.28 311.16L278.28 328.12Q278.28 331.26 276.57 333.05Q274.86 334.84 271.56 334.84" fill="white" fill-opacity="0.9"/>
<path d="M286.83 334.52L284.04 334.52L284.04 311.16L287.88 311.16L295.02 331.16Q294.95 330.36 294.87 329.19Q294.79 328.02 294.75 326.73Q294.70 325.43 294.70 324.28L294.70 311.16L297.48 311.16L297.48 334.52L293.64 334.52L286.54 314.52Q286.60 315.29 286.67 316.46Q286.73 317.62 286.78 318.92Q286.83 320.22 286.83 321.40" fill="white" fill-opacity="0.9"/>
<path d="M316.20 334.52L303.72 334.52L303.72 331.90L308.49 331.90L308.49 313.78L303.72 313.78L303.72 311.16L316.20 311.16L316.20 313.78L311.43 313.78L311.43 331.90L316.20 331.90" fill="white" fill-opacity="0.9"/>
<path d="M330.60 334.52L327.72 334.52L327.72 313.78L321.32 313.78L321.32 311.16L337 311.16L337 313.78L330.60 313.78" fill="white" fill-opacity="0.9"/>
<path d="M349.80 334.52L346.92 334.52L346.92 325.78L339.88 311.16L342.95 311.16L347.50 320.76Q347.88 321.56 348.11 322.12Q348.33 322.68 348.39 322.94Q348.46 322.68 348.70 322.12Q348.94 321.56 349.32 320.76L353.87 311.16L356.84 311.16L349.80 325.78" fill="white" fill-opacity="0.9"/>
<path d="M382.83 334.52L380.04 334.52L380.04 311.16L383.88 311.16L391.02 331.16Q390.95 330.36 390.87 329.19Q390.79 328.02 390.75 326.73Q390.70 325.43 390.70 324.28L390.70 311.16L393.48 311.16L393.48 334.52L389.64 334.52L382.54 314.52Q382.60 315.29 382.67 316.46Q382.73 317.62 382.78 318.92Q382.83 320.22 382.83 321.40" fill="white" fill-opacity="0.9"/>
<path d="M405.96 334.84Q402.83 334.84 401 333.02Q399.18 331.19 399.18 327.80L399.18 317.88Q399.18 314.49 401 312.66Q402.83 310.84 405.96 310.84Q409.10 310.84 410.92 312.66Q412.75 314.49 412.75 317.85L412.75 327.80Q412.75 331.19 410.92 333.02Q409.10 334.84 405.96 334.84M405.96 332.25Q407.85 332.25 408.86 331.18Q409.87 330.10 409.87 328.12L409.87 317.56Q409.87 315.58 408.86 314.50Q407.85 313.43 405.96 313.43Q404.11 313.43 403.08 314.50Q402.06 315.58 402.06 317.56L402.06 328.12Q402.06 330.10 403.08 331.18Q404.11 332.25 405.96 332.25" fill="white" fill-opacity="0.9"/>
<path d="M424.55 334.52L418.51 334.52L418.51 311.16L424.55 311.16Q426.83 311.16 428.47 312.02Q430.12 312.89 431.03 314.46Q431.95 316.02 431.95 318.17L431.95 327.48Q431.95 329.62 431.03 331.21Q430.12 332.79 428.47 333.66Q426.83 334.52 424.55 334.52M421.39 313.72L421.39 331.96L424.55 331.96Q426.67 331.96 427.87 330.78Q429.07 329.59 429.07 327.48L429.07 318.17Q429.07 316.09 427.87 314.90Q426.67 313.72 424.55 313.72" fill="white" fill-opacity="0.9"/>
<path d="M451.40 334.52L437.96 334.52L437.96 311.16L451.40 311.16L451.40 313.78L440.81 313.78L440.81 321.02L450.28 321.02L450.28 323.58L440.81 323.58L440.81 331.90L451.40 331.90" fill="white" fill-opacity="0.9"/>
<path d="M463.69 334.84Q460.30 334.84 458.28 333.05Q456.27 331.26 456.27 328.12L459.15 328.12Q459.15 330.07 460.39 331.18Q461.64 332.28 463.69 332.28Q465.67 332.28 466.86 331.13Q468.04 329.98 468.04 328.12Q468.04 326.71 467.29 325.67Q466.54 324.63 465.13 324.25L461.58 323.26Q459.37 322.62 458.11 320.97Q456.84 319.32 456.84 317.08Q456.84 315.22 457.67 313.82Q458.51 312.41 460.01 311.62Q461.51 310.84 463.47 310.84Q465.45 310.84 466.97 311.62Q468.49 312.41 469.35 313.80Q470.22 315.19 470.22 317.02L467.34 317.02Q467.34 315.42 466.25 314.41Q465.16 313.40 463.47 313.40Q461.77 313.40 460.71 314.41Q459.66 315.42 459.66 317.02Q459.66 318.30 460.35 319.21Q461.03 320.12 462.28 320.47L465.93 321.50Q468.27 322.14 469.56 323.91Q470.86 325.69 470.86 328.12Q470.86 331.19 468.91 333.02Q466.95 334.84 463.69 334.84" fill="white" fill-opacity="0.9"/>
</g>
<path d="M74.37 197.64L72.21 197.64L72.21 180.12L77.85 180.12Q80.30 180.12 81.75 181.52Q83.20 182.93 83.20 185.28Q83.20 187.63 81.75 189.04Q80.30 190.44 77.85 190.44L74.37 190.44L74.37 197.64M74.37 182.06L74.37 188.50L77.85 188.50Q79.26 188.50 80.12 187.62Q80.97 186.74 80.97 185.28Q80.97 183.79 80.12 182.93Q79.26 182.06 77.85 182.06" fill="white" fill-opacity="0.7"/>
<path d="M91.60 197.88Q89.15 197.88 87.86 196.52Q86.56 195.17 86.56 192.84L86.56 180.12L88.72 180.12L88.72 192.84Q88.72 194.28 89.43 195.12Q90.14 195.96 91.60 195.96Q93.04 195.96 93.76 195.12Q94.48 194.28 94.48 192.84L94.48 180.12L96.64 180.12L96.64 192.84Q96.64 195.19 95.36 196.54Q94.07 197.88 91.60 197.88" fill="white" fill-opacity="0.7"/>
<path d="M111.28 197.64L101.20 197.64L101.20 180.12L111.28 180.12L111.28 182.09L103.34 182.09L103.34 187.51L110.44 187.51L110.44 189.43L103.34 189.43L103.34 195.67L111.28 195.67" fill="white" fill-opacity="0.7"/>
<path d="M131.97 201.96L129.81 201.96L129.81 184.44L131.97 184.44L131.97 186.96L131.99 186.96Q132.16 185.66 133.12 184.93Q134.08 184.20 135.57 184.20Q137.56 184.20 138.74 185.51Q139.91 186.82 139.91 189.10L139.91 192.96Q139.91 195.24 138.74 196.56Q137.56 197.88 135.57 197.88Q134.08 197.88 133.12 197.14Q132.16 196.39 131.99 195.12L131.92 195.12L131.97 198.12L131.97 201.96M134.85 196.01Q136.22 196.01 136.98 195.29Q137.75 194.57 137.75 192.96L137.75 189.12Q137.75 187.49 136.98 186.78Q136.22 186.07 134.85 186.07Q133.53 186.07 132.75 186.91Q131.97 187.75 131.97 189.24L131.97 192.84Q131.97 194.33 132.75 195.17Q133.53 196.01 134.85 196.01" fill="white" fill-opacity="0.7"/>
<path d="M146.85 197.64L144.69 197.64L144.69 184.44L146.85 184.44L146.85 186.96L146.90 186.96Q147.06 185.69 147.98 184.94Q148.89 184.20 150.42 184.20Q152.49 184.20 153.60 185.44Q154.72 186.67 154.72 188.95L154.72 190.08L152.56 190.08L152.56 188.95Q152.56 186.07 149.75 186.07Q148.34 186.07 147.59 186.89Q146.85 187.70 146.85 189.24" fill="white" fill-opacity="0.7"/>
<path d="M163.60 197.83Q161.22 197.83 159.82 196.44Q158.42 195.05 158.42 192.55L158.42 189.53Q158.42 187.01 159.81 185.63Q161.20 184.25 163.60 184.25QNaN 184.25 167.39 185.63Q168.78 187.01 168.78 189.53L168.78 192.55Q168.78 195.05 167.38 196.44Q165.98 197.83 163.60 197.83M163.60 195.91Q165.02 195.91 165.82 195.12Q166.62 194.33 166.62 192.79L166.62 189.29Q166.62 187.75 165.82 186.96Q165.02 186.17 163.60 186.17Q162.21 186.17 161.39 186.96Q160.58 187.75 160.58 189.29L160.58 192.79Q160.58 194.33 161.39 195.12Q162.21 195.91 163.60 195.91" fill="white" fill-opacity="0.7"/>
<path d="M179.42 197.64L176.58 197.64L172.10 184.44L174.42 184.44L177.30 193.32Q177.57 194.11 177.76 194.84Q177.95 195.58 178.05 195.98Q178.17 195.58 178.34 194.84Q178.50 194.11 178.74 193.32L181.62 184.44L183.90 184.44" fill="white" fill-opacity="0.7"/>
<path d="M198.52 197.64L187.24 197.64L187.24 195.67L191.92 195.67L191.92 186.41L187.72 186.41L187.72 184.44L194.08 184.44L194.08 195.67L198.52 195.67L198.52 197.64M192.76 182.06Q191.97 182.06 191.51 181.66Q191.06 181.25 191.06 180.55Q191.06 179.83 191.51 179.41Q191.97 178.99 192.76 178.99Q193.55 178.99 194.01 179.41Q194.46 179.83 194.46 180.55Q194.46 181.25 194.01 181.66Q193.55 182.06 192.76 182.06" fill="white" fill-opacity="0.7"/>
<path d="M206.03 197.88Q204.06 197.88 202.88 196.56Q201.69 195.24 201.69 192.98L201.69 189.12Q201.69 186.84 202.86 185.52Q204.04 184.20 206.03 184.20Q207.52 184.20 208.49 184.94Q209.46 185.69 209.66 186.96L209.68 186.96L209.63 183.96L209.63 180.12L211.79 180.12L211.79 197.64L209.63 197.64L209.63 195.12L209.61 195.12Q209.44 196.42 208.48 197.15Q207.52 197.88 206.03 197.88M206.75 196.01Q208.10 196.01 208.86 195.17Q209.63 194.33 209.63 192.84L209.63 189.24Q209.63 187.75 208.86 186.91Q208.10 186.07 206.75 186.07Q205.38 186.07 204.62 186.78Q203.85 187.49 203.85 189.12L203.85 192.96Q203.85 194.57 204.62 195.29Q205.38 196.01 206.75 196.01" fill="white" fill-opacity="0.7"/>
<path d="M221.20 197.88Q218.87 197.88 217.44 196.48Q216.02 195.07 216.02 192.60L216.02 189.48Q216.02 187.01 217.44 185.60Q218.87 184.20 221.20 184.20Q222.76 184.20 223.92 184.82Q225.09 185.45 225.74 186.58Q226.38 187.70 226.38 189.24L226.38 191.59L218.13 191.59L218.13 192.84Q218.13 194.30 218.97 195.16Q219.81 196.01 221.20 196.01Q222.40 196.01 223.18 195.54Q223.96 195.07 224.13 194.28L226.29 194.28Q226.07 195.94 224.68 196.91Q223.29 197.88 221.20 197.88M218.13 189.24L218.13 189.91L224.27 189.91L224.27 189.24Q224.27 187.68 223.47 186.83Q222.66 185.98 221.20 185.98Q219.74 185.98 218.93 186.83Q218.13 187.68 218.13 189.24" fill="white" fill-opacity="0.7"/>
<path d="M236.13 197.83L235.07 197.83Q232.86 197.83 231.65 196.84Q230.44 195.84 230.44 194.02L232.60 194.02Q232.60 194.93 233.25 195.44Q233.90 195.96 235.07 195.96L236.13 195.96Q237.33 195.96 237.99 195.43Q238.65 194.90 238.65 193.94Q238.65 192.24 237.09 192.02L233.44 191.50Q232.10 191.30 231.35 190.38Q230.61 189.46 230.61 187.94Q230.61 186.22 231.80 185.23Q232.98 184.25 235.07 184.25L236.13 184.25Q238.05 184.25 239.26 185.20Q240.47 186.14 240.57 187.68L238.38 187.68Q238.34 186.98 237.72 186.53Q237.11 186.07 236.13 186.07L235.07 186.07Q233.97 186.07 233.34 186.58Q232.72 187.08 232.72 187.94Q232.72 189.34 233.99 189.53L237.40 190.01Q240.76 190.49 240.76 193.94Q240.76 195.79 239.55 196.81Q238.34 197.83 236.13 197.83" fill="white" fill-opacity="0.7"/>
<path d="M269.08 197.64L259.72 197.64L259.72 195.67L263.30 195.67L263.30 182.09L259.72 182.09L259.72 180.12L269.08 180.12L269.08 182.09L265.50 182.09L265.50 195.67L269.08 195.67" fill="white" fill-opacity="0.7"/>
<path d="M283.48 197.64L274.12 197.64L274.12 195.67L277.70 195.67L277.70 182.09L274.12 182.09L274.12 180.12L283.48 180.12L283.48 182.09L279.90 182.09L279.90 195.67L283.48 195.67" fill="white" fill-opacity="0.7"/>
<path d="M304.77 197.64L302.61 197.64L302.61 180.12L308.25 180.12Q310.70 180.12 312.15 181.52Q313.60 182.93 313.60 185.28Q313.60 187.63 312.15 189.04Q310.70 190.44 308.25 190.44L304.77 190.44L304.77 197.64M304.77 182.06L304.77 188.50L308.25 188.50Q309.66 188.50 310.52 187.62Q311.37 186.74 311.37 185.28Q311.37 183.79 310.52 182.93Q309.66 182.06 308.25 182.06" fill="white" fill-opacity="0.7"/>
<path d="M322 197.88Q319.55 197.88 318.26 196.52Q316.96 195.17 316.96 192.84L316.96 180.12L319.12 180.12L319.12 192.84Q319.12 194.28 319.83 195.12Q320.54 195.96 322 195.96Q323.44 195.96 324.16 195.12Q324.88 194.28 324.88 192.84L324.88 180.12L327.04 180.12L327.04 192.84Q327.04 195.19 325.76 196.54Q324.47 197.88 322 197.88" fill="white" fill-opacity="0.7"/>
<path d="M336.59 197.88Q334.19 197.88 332.80 196.54Q331.41 195.19 331.41 192.84L331.41 184.92Q331.41 182.57 332.80 181.22Q334.19 179.88 336.59 179.88Q338.94 179.88 340.34 181.24Q341.73 182.59 341.73 184.92L339.57 184.92Q339.57 183.43 338.79 182.63Q338.01 181.82 336.59 181.82Q335.18 181.82 334.37 182.63Q333.57 183.43 333.57 184.92L333.57 192.84Q333.57 194.33 334.37 195.13Q335.18 195.94 336.59 195.94Q338.01 195.94 338.79 195.13Q339.57 194.33 339.57 192.84L341.73 192.84Q341.73 195.17 340.34 196.52Q338.94 197.88 336.59 197.88" fill="white" fill-opacity="0.7"/>
<path d="M361.46 197.64L359.44 197.64L359.44 184.44L361.31 184.44L361.31 186.19L361.36 186.19Q361.48 185.30 362.07 184.75Q362.66 184.20 363.57 184.20Q364.43 184.20 365.03 184.70Q365.63 185.21 365.90 186.07L365.92 186.07Q366.09 185.21 366.68 184.70Q367.26 184.20 368.18 184.20Q369.45 184.20 370.20 185.15Q370.96 186.10 370.96 187.61L370.96 197.64L368.94 197.64L368.94 187.58Q368.94 186.79 368.56 186.32Q368.18 185.86 367.50 185.86Q366.86 185.86 366.47 186.31Q366.09 186.77 366.09 187.56L366.09 197.64L364.31 197.64L364.31 187.58Q364.31 186.79 363.93 186.32Q363.54 185.86 362.90 185.86Q362.22 185.86 361.84 186.31Q361.46 186.77 361.46 187.56" fill="white" fill-opacity="0.7"/>
<path d="M378.45 197.88Q376.41 197.88 375.21 196.74Q374.01 195.60 374.01 193.75Q374.01 192.53 374.56 191.62Q375.11 190.70 376.10 190.19Q377.08 189.67 378.35 189.67L382.43 189.67L382.43 188.64Q382.43 186.07 379.62 186.07Q378.38 186.07 377.61 186.53Q376.84 186.98 376.79 187.80L374.63 187.80Q374.75 186.24 376.08 185.22Q377.42 184.20 379.62 184.20Q382.02 184.20 383.31 185.35Q384.59 186.50 384.59 188.57L384.59 197.64L382.46 197.64L382.46 195.24L382.41 195.24Q382.22 196.46 381.18 197.17Q380.15 197.88 378.45 197.88M378.98 196.06Q380.56 196.06 381.50 195.29Q382.43 194.52 382.43 193.20L382.43 191.35L378.59 191.35Q377.54 191.35 376.88 191.99Q376.22 192.62 376.22 193.68Q376.22 194.78 376.95 195.42Q377.68 196.06 378.98 196.06" fill="white" fill-opacity="0.7"/>
<path d="M391.65 197.64L389.49 197.64L389.49 184.44L391.65 184.44L391.65 186.96L391.70 186.96Q391.86 185.69 392.78 184.94Q393.69 184.20 395.22 184.20Q397.29 184.20 398.40 185.44Q399.52 186.67 399.52 188.95L399.52 190.08L397.36 190.08L397.36 188.95Q397.36 186.07 394.55 186.07Q393.14 186.07 392.39 186.89Q391.65 187.70 391.65 189.24" fill="white" fill-opacity="0.7"/>
<path d="M405.69 197.64L403.53 197.64L403.53 180.12L405.69 180.12L405.69 189.89L408.21 189.89L411.90 184.44L414.38 184.44L410.13 190.73L414.62 197.64L412.10 197.64L408.26 191.76L405.69 191.76" fill="white" fill-opacity="0.7"/>
<path d="M423.33 197.83L422.27 197.83Q420.06 197.83 418.85 196.84Q417.64 195.84 417.64 194.02L419.80 194.02Q419.80 194.93 420.45 195.44Q421.10 195.96 422.27 195.96L423.33 195.96Q424.53 195.96 425.19 195.43Q425.85 194.90 425.85 193.94Q425.85 192.24 424.29 192.02L420.64 191.50Q419.30 191.30 418.55 190.38Q417.81 189.46 417.81 187.94Q417.81 186.22 419 185.23Q420.18 184.25 422.27 184.25L423.33 184.25Q425.25 184.25 426.46 185.20Q427.67 186.14 427.77 187.68L425.58 187.68Q425.54 186.98 424.92 186.53Q424.31 186.07 423.33 186.07L422.27 186.07Q421.17 186.07 420.54 186.58Q419.92 187.08 419.92 187.94Q419.92 189.34 421.19 189.53L424.60 190.01Q427.96 190.49 427.96 193.94Q427.96 195.79 426.75 196.81Q425.54 197.83 423.33 197.83" fill="white" fill-opacity="0.7"/>
<path d="M434.37 197.64L432.21 197.64L432.21 180.12L434.37 180.12L434.37 186.96L434.39 186.96Q434.56 185.64 435.47 184.92Q436.38 184.20 437.90 184.20Q439.89 184.20 441.06 185.42Q442.24 186.65 442.24 188.76L442.24 197.64L440.08 197.64L440.08 189.12Q440.08 187.63 439.32 186.83Q438.57 186.02 437.27 186.02Q435.93 186.02 435.15 186.86Q434.37 187.70 434.37 189.24" fill="white" fill-opacity="0.7"/>
<path d="M451.60 197.88Q449.27 197.88 447.84 196.48Q446.42 195.07 446.42 192.60L446.42 189.48Q446.42 187.01 447.84 185.60Q449.27 184.20 451.60 184.20Q453.16 184.20 454.32 184.82Q455.49 185.45 456.14 186.58Q456.78 187.70 456.78 189.24L456.78 191.59L448.53 191.59L448.53 192.84Q448.53 194.30 449.37 195.16Q450.21 196.01 451.60 196.01Q452.80 196.01 453.58 195.54Q454.36 195.07 454.53 194.28L456.69 194.28Q456.47 195.94 455.08 196.91Q453.69 197.88 451.60 197.88M448.53 189.24L448.53 189.91L454.67 189.91L454.67 189.24Q454.67 187.68 453.87 186.83Q453.06 185.98 451.60 185.98Q450.14 185.98 449.33 186.83Q448.53 187.68 448.53 189.24" fill="white" fill-opacity="0.7"/>
<path d="M466 197.88Q463.67 197.88 462.24 196.48Q460.82 195.07 460.82 192.60L460.82 189.48Q460.82 187.01 462.24 185.60Q463.67 184.20 466 184.20Q467.56 184.20 468.72 184.82Q469.89 185.45 470.54 186.58Q471.18 187.70 471.18 189.24L471.18 191.59L462.93 191.59L462.93 192.84Q462.93 194.30 463.77 195.16Q464.61 196.01 466 196.01Q467.20 196.01 467.98 195.54Q468.76 195.07 468.93 194.28L471.09 194.28Q470.87 195.94 469.48 196.91Q468.09 197.88 466 197.88M462.93 189.24L462.93 189.91L469.07 189.91L469.07 189.24Q469.07 187.68 468.27 186.83Q467.46 185.98 466 185.98Q464.54 185.98 463.73 186.83Q462.93 187.68 462.93 189.24" fill="white" fill-opacity="0.7"/>
<path d="M485.56 197.64L481.72 197.64Q480.09 197.64 479.10 196.69Q478.12 195.74 478.12 194.16L478.12 186.41L474.33 186.41L474.33 184.44L478.12 184.44L478.12 180.72L480.28 180.72L480.28 184.44L485.68 184.44L485.68 186.41L480.28 186.41L480.28 194.16Q480.28 194.83 480.68 195.25Q481.07 195.67 481.72 195.67L485.56 195.67" fill="white" fill-opacity="0.7"/>
<path d="M495.33 197.83L494.27 197.83Q492.06 197.83 490.85 196.84Q489.64 195.84 489.64 194.02L491.80 194.02Q491.80 194.93 492.45 195.44Q493.10 195.96 494.27 195.96L495.33 195.96Q496.53 195.96 497.19 195.43Q497.85 194.90 497.85 193.94Q497.85 192.24 496.29 192.02L492.64 191.50Q491.30 191.30 490.55 190.38Q489.81 189.46 489.81 187.94Q489.81 186.22 491 185.23Q492.18 184.25 494.27 184.25L495.33 184.25Q497.25 184.25 498.46 185.20Q499.67 186.14 499.77 187.68L497.58 187.68Q497.54 186.98 496.92 186.53Q496.31 186.07 495.33 186.07L494.27 186.07Q493.17 186.07 492.54 186.58Q491.92 187.08 491.92 187.94Q491.92 189.34 493.19 189.53L496.60 190.01Q499.96 190.49 499.96 193.94Q499.96 195.79 498.75 196.81Q497.54 197.83 495.33 197.83" fill="white" fill-opacity="0.7"/>
<path d="M523.72 197.64L521.56 197.64L521.56 188.21L517.72 188.21L517.72 186.24L521.56 186.24L521.56 183.48Q521.56 181.92 522.54 181.02Q523.53 180.12 525.26 180.12L529.12 180.12L529.12 182.09L525.26 182.09Q523.72 182.09 523.72 183.48L523.72 186.24L529.12 186.24L529.12 188.21L523.72 188.21" fill="white" fill-opacity="0.7"/>
<path d="M538 197.83Q535.62 197.83 534.22 196.44Q532.82 195.05 532.82 192.55L532.82 189.53Q532.82 187.01 534.21 185.63Q535.60 184.25 538 184.25Q540.40 184.25 541.79 185.63Q543.18 187.01 543.18 189.53L543.18 192.55Q543.18 195.05 541.78 196.44Q540.38 197.83 538 197.83M538 195.91Q539.42 195.91 540.22 195.12Q541.02 194.33 541.02 192.79L541.02 189.29Q541.02 187.75 540.22 186.96Q539.42 186.17 538 186.17Q536.61 186.17 535.79 186.96Q534.98 187.75 534.98 189.29L534.98 192.79Q534.98 194.33 535.79 195.12Q536.61 195.91 538 195.91" fill="white" fill-opacity="0.7"/>
<path d="M550.05 197.64L547.89 197.64L547.89 184.44L550.05 184.44L550.05 186.96L550.10 186.96Q550.26 185.69 551.18 184.94Q552.09 184.20 553.62 184.20Q555.69 184.20 556.80 185.44Q557.92 186.67 557.92 188.95L557.92 190.08L555.76 190.08L555.76 188.95Q555.76 186.07 552.95 186.07Q551.54 186.07 550.79 186.89Q550.05 187.70 550.05 189.24" fill="white" fill-opacity="0.7"/>
<path d="M586.65 197.64L576.06 197.64L576.06 195.65L581.90 189.41Q583.17 188.06 583.70 187.01Q584.22 185.95 584.22 184.94Q584.22 183.50 583.40 182.65Q582.57 181.80 581.15 181.80Q579.69 181.80 578.84 182.68Q577.98 183.55 577.98 185.04L575.82 185.04Q575.90 182.66 577.34 181.27Q578.78 179.88 581.15 179.88Q583.58 179.88 585 181.25Q586.43 182.62 586.43 184.97Q586.43 186.22 585.75 187.61Q585.06 189 583.41 190.73L578.68 195.67L586.65 195.67" fill="white" fill-opacity="0.7"/>
<path d="M595.60 197.88Q593.18 197.88 591.75 196.48Q590.32 195.07 590.32 192.72L590.32 185.04Q590.32 182.69 591.75 181.28Q593.18 179.88 595.60 179.88Q598.02 179.88 599.45 181.28Q600.88 182.69 600.88 185.04L600.88 192.72Q600.88 194.28 600.23 195.44Q599.58 196.61 598.40 197.24Q597.21 197.88 595.60 197.88M595.60 196.03Q597.04 196.03 597.92 195.11Q598.79 194.18 598.79 192.72L598.79 185.04Q598.79 183.58 597.92 182.65Q597.04 181.73 595.60 181.73Q594.16 181.73 593.28 182.65Q592.41 183.58 592.41 185.04L592.41 192.72Q592.41 194.18 593.28 195.11Q594.16 196.03 595.60 196.03M595.60 190.20Q594.95 190.20 594.56 189.84Q594.16 189.48 594.16 188.81Q594.16 188.16 594.56 187.81Q594.95 187.46 595.60 187.46Q596.25 187.46 596.64 187.81Q597.04 188.16 597.04 188.81Q597.04 189.48 596.64 189.84Q596.25 190.20 595.60 190.20" fill="white" fill-opacity="0.7"/>
<path d="M615.76 197.64L604.96 197.64L604.96 195.67L609.71 195.67L609.71 181.99L604.96 185.54L604.96 183.07L608.92 180.12L611.87 180.12L611.87 195.67L615.76 195.67" fill="white" fill-opacity="0.7"/>
<path d="M624.40 197.88Q622.74 197.88 621.47 197.23Q620.20 196.58 619.49 195.42Q618.78 194.26 618.78 192.74Q618.78 191.09 619.73 189.89Q620.68 188.69 622.26 188.42L622.26 188.35Q620.90 188.04 620.08 186.97Q619.26 185.90 619.26 184.51Q619.26 183.14 619.91 182.10Q620.56 181.06 621.72 180.47Q622.89 179.88 624.40 179.88Q625.94 179.88 627.09 180.47Q628.24 181.06 628.89 182.10Q629.54 183.14 629.54 184.51Q629.54 185.90 628.72 186.97Q627.90 188.04 626.54 188.35L626.54 188.42Q628.12 188.69 629.07 189.89Q630.02 191.09 630.02 192.74Q630.02 194.26 629.31 195.42Q628.60 196.58 627.34 197.23Q626.08 197.88 624.40 197.88M624.40 187.51Q625.74 187.51 626.56 186.72Q627.38 185.93 627.38 184.66Q627.38 183.38 626.56 182.59Q625.74 181.80 624.40 181.80Q623.08 181.80 622.25 182.59Q621.42 183.38 621.42 184.66Q621.42 185.93 622.25 186.72Q623.08 187.51 624.40 187.51M624.40 195.94Q625.94 195.94 626.90 195.04Q627.86 194.14 627.86 192.70Q627.86 191.23 626.90 190.33Q625.94 189.43 624.40 189.43Q622.86 189.43 621.90 190.33Q620.94 191.23 620.94 192.70Q620.94 194.14 621.90 195.04Q622.86 195.94 624.40 195.94" fill="white" fill-opacity="0.7"/>
<path d="M642.64 190.68L634.96 190.68L634.96 188.76L642.64 188.76" fill="white" fill-opacity="0.7"/>
<path d="M658.65 197.64L648.06 197.64L648.06 195.65L653.90 189.41Q655.17 188.06 655.70 187.01Q656.22 185.95 656.22 184.94Q656.22 183.50 655.40 182.65Q654.57 181.80 653.15 181.80Q651.69 181.80 650.84 182.68Q649.98 183.55 649.98 185.04L647.82 185.04Q647.90 182.66 649.34 181.27Q650.78 179.88 653.15 179.88Q655.58 179.88 657 181.25Q658.43 182.62 658.43 184.97Q658.43 186.22 657.75 187.61Q657.06 189 655.41 190.73L650.68 195.67L658.65 195.67" fill="white" fill-opacity="0.7"/>
<path d="M667.60 197.88Q665.18 197.88 663.75 196.48Q662.32 195.07 662.32 192.72L662.32 185.04Q662.32 182.69 663.75 181.28Q665.18 179.88 667.60 179.88Q670.02 179.88 671.45 181.28Q672.88 182.69 672.88 185.04L672.88 192.72Q672.88 194.28 672.23 195.44Q671.58 196.61 670.40 197.24Q669.21 197.88 667.60 197.88M667.60 196.03Q669.04 196.03 669.92 195.11Q670.79 194.18 670.79 192.72L670.79 185.04Q670.79 183.58 669.92 182.65Q669.04 181.73 667.60 181.73Q666.16 181.73 665.28 182.65Q664.41 183.58 664.41 185.04L664.41 192.72Q664.41 194.18 665.28 195.11Q666.16 196.03 667.60 196.03M667.60 190.20Q666.95 190.20 666.56 189.84Q666.16 189.48 666.16 188.81Q666.16 188.16 666.56 187.81Q666.95 187.46 667.60 187.46Q668.25 187.46 668.64 187.81Q669.04 188.16 669.04 188.81Q669.04 189.48 668.64 189.84Q668.25 190.20 667.60 190.20" fill="white" fill-opacity="0.7"/>
<path d="M687.76 197.64L676.96 197.64L676.96 195.67L681.71 195.67L681.71 181.99L676.96 185.54L676.96 183.07L680.92 180.12L683.87 180.12L683.87 195.67L687.76 195.67" fill="white" fill-opacity="0.7"/>
<path d="M696.40 197.64L693.88 197.64L698.20 190.13L698.13 190.08Q697.89 190.46 697.24 190.69Q696.59 190.92 695.82 190.92Q694.31 190.92 693.17 190.24Q692.03 189.55 691.38 188.35Q690.74 187.15 690.74 185.57Q690.74 183.86 691.46 182.59Q692.18 181.32 693.45 180.60Q694.72 179.88 696.38 179.88Q698.08 179.88 699.35 180.59Q700.62 181.30 701.34 182.56Q702.06 183.82 702.06 185.47Q702.06 186.62 701.63 187.84Q701.20 189.05 700.46 190.37L696.40 197.64M696.40 189.24Q697.96 189.24 698.93 188.21Q699.90 187.18 699.90 185.52Q699.90 183.86 698.93 182.83Q697.96 181.80 696.40 181.80Q694.84 181.80 693.87 182.83Q692.90 183.86 692.90 185.52Q692.90 187.18 693.87 188.21Q694.84 189.24 696.40 189.24" fill="white" fill-opacity="0.7"/>
<path d="M725.20 197.88Q722.87 197.88 721.44 196.48Q720.02 195.07 720.02 192.60L720.02 189.48Q720.02 187.01 721.44 185.60Q722.87 184.20 725.20 184.20Q726.76 184.20 727.92 184.82Q729.09 185.45 729.74 186.58Q730.38 187.70 730.38 189.24L730.38 191.59L722.13 191.59L722.13 192.84Q722.13 194.30 722.97 195.16Q723.81 196.01 725.20 196.01Q726.40 196.01 727.18 195.54Q727.96 195.07 728.13 194.28L730.29 194.28Q730.07 195.94 728.68 196.91Q727.29 197.88 725.20 197.88M722.13 189.24L722.13 189.91L728.27 189.91L728.27 189.24Q728.27 187.68 727.47 186.83Q726.66 185.98 725.20 185.98Q723.74 185.98 722.93 186.83Q722.13 187.68 722.13 189.24" fill="white" fill-opacity="0.7"/>
<path d="M736.14 197.64L733.60 197.64L738.28 190.85L733.89 184.44L736.43 184.44L739.05 188.52Q739.22 188.78 739.37 189.10Q739.53 189.41 739.62 189.60Q739.70 189.41 739.85 189.10Q740.01 188.78 740.18 188.52L742.79 184.44L745.34 184.44L740.94 190.87L745.60 197.64L743.06 197.64L740.22 193.32Q740.06 193.06 739.90 192.71Q739.74 192.36 739.62 192.14Q739.53 192.36 739.35 192.71Q739.17 193.06 738.98 193.32" fill="white" fill-opacity="0.7"/>
<path d="M752.85 197.88Q750.81 197.88 749.61 196.74Q748.41 195.60 748.41 193.75Q748.41 192.53 748.96 191.62Q749.51 190.70 750.50 190.19Q751.48 189.67 752.75 189.67L756.83 189.67L756.83 188.64Q756.83 186.07 754.02 186.07Q752.78 186.07 752.01 186.53Q751.24 186.98 751.19 187.80L749.03 187.80Q749.15 186.24 750.48 185.22Q751.82 184.20 754.02 184.20Q756.42 184.20 757.71 185.35Q758.99 186.50 758.99 188.57L758.99 197.64L756.86 197.64L756.86 195.24L756.81 195.24Q756.62 196.46 755.58 197.17Q754.55 197.88 752.85 197.88M753.38 196.06Q754.96 196.06 755.90 195.29Q756.83 194.52 756.83 193.20L756.83 191.35L752.99 191.35Q751.94 191.35 751.28 191.99Q750.62 192.62 750.62 193.68Q750.62 194.78 751.35 195.42Q752.08 196.06 753.38 196.06" fill="white" fill-opacity="0.7"/>
<path d="M764.66 197.64L762.64 197.64L762.64 184.44L764.51 184.44L764.51 186.19L764.56 186.19Q764.68 185.30 765.27 184.75Q765.86 184.20 766.77 184.20Q767.63 184.20 768.23 184.70Q768.83 185.21 769.10 186.07L769.12 186.07Q769.29 185.21 769.88 184.70Q770.46 184.20 771.38 184.20Q772.65 184.20 773.40 185.15Q774.16 186.10 774.16 187.61L774.16 197.64L772.14 197.64L772.14 187.58Q772.14 186.79 771.76 186.32Q771.38 185.86 770.70 185.86Q770.06 185.86 769.67 186.31Q769.29 186.77 769.29 187.56L769.29 197.64L767.51 197.64L767.51 187.58Q767.51 186.79 767.13 186.32Q766.74 185.86 766.10 185.86Q765.42 185.86 765.04 186.31Q764.66 186.77 764.66 187.56" fill="white" fill-opacity="0.7"/>
<path d="M783.33 197.83L782.27 197.83Q780.06 197.83 778.85 196.84Q777.64 195.84 777.64 194.02L779.80 194.02Q779.80 194.93 780.45 195.44Q781.10 195.96 782.27 195.96L783.33 195.96Q784.53 195.96 785.19 195.43Q785.85 194.90 785.85 193.94Q785.85 192.24 784.29 192.02L780.64 191.50Q779.30 191.30 778.55 190.38Q777.81 189.46 777.81 187.94Q777.81 186.22 779 185.23Q780.18 184.25 782.27 184.25L783.33 184.25Q785.25 184.25 786.46 185.20Q787.67 186.14 787.77 187.68L785.58 187.68Q785.54 186.98 784.92 186.53Q784.31 186.07 783.33 186.07L782.27 186.07Q781.17 186.07 780.54 186.58Q779.92 187.08 779.92 187.94Q779.92 189.34 781.19 189.53L784.60 190.01Q787.96 190.49 787.96 193.94Q787.96 195.79 786.75 196.81Q785.54 197.83 783.33 197.83" fill="white" fill-opacity="0.7"/>
<path d="M797.20 197.88Q796.31 197.88 795.77 197.35Q795.23 196.82 795.23 195.98Q795.23 195.10 795.77 194.54Q796.31 193.99 797.20 193.99Q798.09 193.99 798.63 194.54Q799.17 195.10 799.17 195.98Q799.17 196.82 798.63 197.35Q798.09 197.88 797.20 197.88" fill="white" fill-opacity="0.7"/>
<path d="M76.11 136.06L66.42 136.06L84.56 65.98L97.14 65.98L115.18 136.06L105.49 136.06L101.07 117.82L80.53 117.82L76.11 136.06M87.54 88.92L82.45 109.95L99.15 109.95L94.16 89.02Q92.72 83.26 91.86 79.23Q90.99 75.20 90.80 73.76Q90.61 75.20 89.74 79.23Q88.88 83.26 87.54 88.92M137.55 136.06L128.05 136.06L128.05 65.98L150.80 65.98Q157.52 65.98 162.42 68.57Q167.31 71.16 170 75.82Q172.69 80.48 172.69 86.91Q172.69 93.24 170 97.90Q167.31 102.56 162.37 105.15Q157.42 107.74 150.80 107.74L137.55 107.74L137.55 136.06M137.55 74.43L137.55 99.29L150.80 99.29Q156.37 99.29 159.63 95.88Q162.90 92.48 162.90 86.91Q162.90 81.24 159.63 77.84Q156.37 74.43 150.80 74.43L137.55 74.43M225.10 136.06L186.90 136.06L186.90 127.42L201.20 127.42L201.20 74.62L186.90 74.62L186.90 65.98L225.10 65.98L225.10 74.62L210.80 74.62L210.80 127.42L225.10 127.42L225.10 136.06M263.98 137.02Q253.62 137.02 247.47 131.60Q241.33 126.17 241.33 116.67L250.83 116.67Q250.83 122.24 254.38 125.40Q257.94 128.57 263.98 128.57Q269.74 128.57 273.15 125.36Q276.56 122.14 276.56 116.76Q276.56 112.73 274.35 109.71Q272.14 106.68 268.11 105.63L257.74 102.84Q250.93 100.92 246.94 95.88Q242.96 90.84 242.96 83.93Q242.96 78.27 245.50 74Q248.05 69.72 252.66 67.37Q257.26 65.02 263.31 65.02Q269.46 65.02 274.11 67.37Q278.77 69.72 281.36 73.95Q283.95 78.17 283.95 83.74L274.54 83.74Q274.54 79.13 271.42 76.25Q268.30 73.37 263.31 73.37Q258.32 73.37 255.30 76.25Q252.27 79.13 252.27 83.74Q252.27 87.48 254.29 90.03Q256.30 92.57 259.95 93.63L270.61 96.51Q277.81 98.43 281.84 103.85Q285.87 109.28 285.87 116.76Q285.87 122.91 283.18 127.47Q280.50 132.03 275.55 134.52Q270.61 137.02 263.98 137.02M342.51 136.06L301.71 136.06L301.71 65.98L342.51 65.98L342.51 74.52L311.12 74.52L311.12 95.36L339.15 95.36L339.15 103.61L311.12 103.61L311.12 127.52L342.51 127.52L342.51 136.06M383.60 136.06L374.10 136.06L374.10 74.62L355.09 74.62L355.09 65.98L402.51 65.98L402.51 74.62L383.60 74.62L383.60 136.06M436.40 137.02Q426.51 137.02 421.18 131.55Q415.86 126.08 415.86 116.67L415.86 65.98L425.36 65.98L425.36 116.67Q425.36 122.24 428.10 125.40Q430.83 128.57 436.40 128.57Q441.87 128.57 444.70 125.40Q447.54 122.24 447.54 116.67L447.54 65.98L457.04 65.98L457.04 116.67Q457.04 126.17 451.71 131.60Q446.38 137.02 436.40 137.02M551.98 137.02Q542.29 137.02 536.58 131.60Q530.86 126.17 530.86 116.67L530.86 85.28Q530.86 75.87 536.58 70.44Q542.29 65.02 551.98 65.02Q561.58 65.02 567.30 70.49Q573.01 75.96 573.01 85.28L563.50 85.28Q563.50 79.61 560.43 76.54Q557.36 73.47 551.98 73.47Q546.51 73.47 543.44 76.54Q540.37 79.61 540.37 85.28L540.37 116.67Q540.37 122.43 543.44 125.50Q546.51 128.57 551.98 128.57Q557.36 128.57 560.43 125.50Q563.50 122.43 563.50 116.67L563.50 107.55L549.87 107.55L549.87 99.10L573.01 99.10L573.01 116.67Q573.01 126.08 567.30 131.55Q561.58 137.02 551.98 137.02M609.20 137.02Q599.60 137.02 594.03 131.45Q588.46 125.88 588.46 115.71L588.46 86.24Q588.46 76.16 594.03 70.59Q599.60 65.02 609.20 65.02Q618.80 65.02 624.37 70.54Q629.94 76.06 629.94 86.24L629.94 115.71Q629.94 125.88 624.37 131.45Q618.80 137.02 609.20 137.02M609.20 128.57Q614.58 128.57 617.50 125.50Q620.43 122.43 620.43 116.67L620.43 85.28Q620.43 79.61 617.55 76.54Q614.67 73.47 609.20 73.47Q603.73 73.47 600.85 76.54Q597.97 79.61 597.97 85.28L597.97 116.67Q597.97 122.43 600.90 125.50Q603.82 128.57 609.20 128.57M673.14 136.06L660.37 136.06L642.42 65.98L652.21 65.98L663.82 113.21Q664.98 117.72 665.79 121.90Q666.61 126.08 666.99 128.28Q667.28 126.08 668.19 121.85Q669.10 117.63 670.16 113.12L681.39 65.98L691.18 65.98L673.14 136.06M771.15 136.06L761.65 136.06L761.65 65.98L784.40 65.98Q791.12 65.98 796.02 68.57Q800.91 71.16 803.60 75.82Q806.29 80.48 806.29 86.91Q806.29 93.24 803.60 97.90Q800.91 102.56 795.97 105.15Q791.02 107.74 784.40 107.74L771.15 107.74L771.15 136.06M771.15 74.43L771.15 99.29L784.40 99.29Q789.97 99.29 793.23 95.88Q796.50 92.48 796.50 86.91Q796.50 81.24 793.23 77.84Q789.97 74.43 784.40 74.43L771.15 74.43M839.60 137.02Q829.71 137.02 824.38 131.55Q819.06 126.08 819.06 116.67L819.06 65.98L828.56 65.98L828.56 116.67Q828.56 122.24 831.30 125.40Q834.03 128.57 839.60 128.57Q845.07 128.57 847.90 125.40Q850.74 122.24 850.74 116.67L850.74 65.98L860.24 65.98L860.24 116.67Q860.24 126.17 854.91 131.60Q849.58 137.02 839.60 137.02M918.51 136.06L877.71 136.06L877.71 65.98L918.51 65.98L918.51 74.52L887.12 74.52L887.12 95.36L915.15 95.36L915.15 103.61L887.12 103.61L887.12 127.52L918.51 127.52L918.51 136.06M943.95 136.06L934.45 136.06L934.45 65.98L943.95 65.98L943.95 95.74L953.74 95.74L968.72 65.98L979.09 65.98L962.10 99.68L979.95 136.06L969.20 136.06L953.55 104.09L943.95 104.09L943.95 136.06M997.71 136.06L988.02 136.06L1006.16 65.98L1018.74 65.98L1036.78 136.06L1027.09 136.06L1022.67 117.82L1002.13 117.82L997.71 136.06M1009.14 88.92L1004.05 109.95L1020.75 109.95L1015.76 89.02Q1014.32 83.26 1013.46 79.23Q1012.59 75.20 1012.40 73.76Q1012.21 75.20 1011.34 79.23Q1010.48 83.26 1009.14 88.92M1059.15 136.06L1049.74 136.06L1049.74 65.98L1071.44 65.98Q1077.87 65.98 1082.67 68.52Q1087.47 71.07 1090.16 75.63Q1092.85 80.19 1092.85 86.33Q1092.85 93.44 1089.25 98.52Q1085.65 103.61 1079.70 105.72L1093.81 136.06L1083.34 136.06LNaN 106.78L1059.15 106.78L1059.15 136.06M1059.15 74.43L1059.15 98.33L1071.44 98.33Q1076.82 98.33 1079.94 95.07Q1083.06 91.80 1083.06 86.43Q1083.06 80.96 1079.89 77.69Q1076.72 74.43 1071.44 74.43" fill="url(#paint2_linear_0_1)"/>
<g id="Group 1">
<rect id="Rectangle 1" x="26" y="168" width="12" height="184" rx="5" fill="url(#paint3_linear_0_1)" fill-opacity="0.9"/>
</g>
<g id="Group 1_2">
<rect id="Rectangle 2" x="26" y="38" width="12" height="119" rx="5" fill="url(#paint4_linear_0_1)" fill-opacity="0.9"/>
</g>
<ellipse id="Ellipse 1" cx="148.5" cy="573" rx="215.5" ry="214" fill="url(#paint5_linear_0_1)" fill-opacity="0.4"/>
<rect id="Rectangle 3" x="1229" y="48" width="300" height="300" rx="25" fill="#FFFBFB" fill-opacity="0.9"/>
<g id="placeholder-logo"><g transform="translate(1229,48) translate(0.0,60.0) scale(1.2000)"><g fill="#666666">
  <path d="m88.05,27.65c-3.15,4 -3.2,51.2 -0.05,54.35c2.75,2.75 71.7,3.15 74.45,0.45c2.85,-2.9 2.3,-53.85 -0.65,-55.9c-1.95,-1.35 -7.15,-1.55 -36.95,-1.55l-34.7,0l-2.1,2.65zm69.45,3.35c0.65,0 1,8.6 1,23.75l0,23.75l-33,0l-33,0l-0.25,-23c-0.15,-12.6 -0.1,-23.45 0.15,-24.1c0.35,-0.85 8.9,-1.05 32.25,-0.75c17.55,0.2 32.3,0.35 32.85,0.35z"/>
  <path d="m99.15,37.3c-6.85,7.35 4.25,17.35 11.4,10.25c1.35,-1.35 2.45,-3.65 2.45,-5.05c0,-6.45 -9.35,-9.95 -13.85,-5.2z"/>
  <path d="m135,42.5c-0.7,0.85 -5.25,5.15 -10.1,9.6l-8.85,8.1l-3.2,-3.2l-3.15,-3.15l-6.35,6.3c-5.55,5.5 -6.35,6.75 -6.35,10.05l0,3.8l28.5,0l28.5,0l0,-8.6l0,-8.55l-8.15,-7.7c-9.35,-8.85 -9.15,-8.7 -10.85,-6.65zm7.25,15.2c0.95,0.9 1.75,2.9 1.75,4.45c6.35,-5.05 4.75,-7.15 4.9,-11.55c0.95,0 0,0 0,0l-6.65,7.1z"/>
  <path d="m53.65,110.75c0.1,4.8 0.45,8.65 0.75,8.5c0.35,-0.15 1.3,-0.25 2.1,-0.25c1.1,0 1.5,-1.2 1.5,-4.75l0,-4.75l3.25,5c4.9,7.5 6.2,6.75 6.55,-3.75c0.25,-8.15 0.15,-8.75 -1.7,-8.75c-1.65,0 -2.05,0.8 -2.3,4.75l-0.3,4.75l-2.8,-4.75c-4.85,-8.25 -7.25,-6.9 -7.05,4z"/>
  <path d="m91,108.9c0,9.65 0.3,10.1 6.1,10.1c5.8,0 7.15,-2.65 1.65,-3.2l-3.25,-0.3l-0.3,-6.75c-0.25,-5.95 -0.55,-6.75 -2.25,-6.75c-1.75,0 -1.95,0.7 -1.95,6.9z"/>
  <path d="m151,102.45c0,0.25 1,2.15 2.25,4.2c1.2,2.1 2.45,5.8 2.75,8.25c0.65,5.9 4,6.95 4,1.25c0.05,-2.1 1.25,-5.85 2.95,-8.9l2.9,-5.25l-2.5,0c-1.8,0 -2.8,0.85 -3.75,3.1l-1.3,3.05l-1.25,-3.05c-1.1,-2.6 -6.05,-4.8 -6.05,-2.65z"/>
  <path d="m191,107.45c0,9.05 3.4,8.85 4.25,-0.2c0.45,-5 0.35,-5.25 -1.9,-5.25c-2.2,0 -2.35,0.4 -2.35,5.45z"/>
  <path d="m180.8,104.75c-1.3,5.35 0.65,13.6 3.45,14.35c2.3,0.6 2.75,0.4 2.75,-1.2c0,-1.05 -0.45,-1.9 -1,-1.9c-0.55,0 -1,-1.6 -1,-3.5c0,-1.95 0.45,-3.5 1,-3.5c0.55,0 1,-0.7 1,-1.5c0,-0.85 -0.45,-1.5 -1,-1.5c-0.55,0 -1,-0.7 -1,-1.5c0,-2.1 -3.65,-1.9 -4.2,0.25z"/>
  <path d="m71.55,106.55c-2.2,2.25 -2.05,9.7 0.3,11.8c4.5,4.1 10.15,0.75 10.15,-6.1c0,-4.85 -2,-7.25 -6,-7.25c-1.55,0 -3.55,0.7 -4.45,1.55zm6.25,5.8c0.25,3.05 0,3.65 -1.6,3.65c-2.3,0 -3.25,-2.65 -2.05,-5.85c1.25,-3.35 3.3,-2.1 3.65,2.2z"/>
  <path d="m105.75,106.1c-2.5,1.45 -2.45,9.95 0.1,12.25c4.3,3.9 10.15,0.35 10.15,-6.2c0,-6 -5.15,-9.05 -10.25,-6.05zm6.05,6.25c0.25,3.05 0,3.65 -1.6,3.65c-2.3,0 -3.25,-2.65 -2.05,-5.85c1.25,-3.35 3.3,-2.1 3.65,2.2z"/>
  <path d="m119.2,106.2c-3.8,3.8 -0.4,12.55 4.4,11.35c1.9,-0.45 2.45,-0.3 2.15,0.65c-0.25,0.7 -1.55,1.2 -2.85,1.1c-4.05,-0.3 -5.35,0.45 -3.85,2.25c0.85,1.05 2.6,1.45 5.35,1.25l4.1,-0.3l0.3,-8.75l0.3,-8.75l-4.35,0c-2.4,0 -4.9,0.55 -5.55,1.2zm6.6,4.45c0.4,2.85 -2.15,4.85 -3.75,2.95c-0.9,-1.1 -0.9,-2 -0.05,-3.6c1.35,-2.5 3.4,-2.15 3.8,0.65z"/>
  <path d="m133.55,106.55c-2.2,2.25 -2.05,9.7 0.3,11.8c4.5,4.1 10.15,0.75 10.15,-6.1c0,-4.85 -2,-7.25 -6,-7.25c-1.55,0 -3.55,0.7 -4.45,1.55zm6.25,5.8c0.25,3.05 0,3.65 -1.6,3.65c-2.3,0 -3.25,-2.65 -2.05,-5.85c1.25,-3.35 3.3,-2.1 3.65,2.2z"/>
  <path d="m167.65,106.85c-3.9,4.3 -0.75,13.15 4.7,13.15c2.4,0 5.65,-2.75 5.65,-4.85c0,-1.4 -2.65,-1.55 -3.5,-0.15c-0.95,1.55 -4.5,1.15 -4.5,-0.5c0,-1.1 1.1,-1.5 4,-1.5c3.15,0 4,-0.35 4,-1.8c0,-5.3 -6.85,-8.25 -10.35,-4.35z"/>
  <path d="m191,117.5c0,2.15 0.4,2.6 2.25,2.3c1.5,-0.2 2.25,-1 2.25,-2.3c0,-1.3 -0.75,-2.1 -2.25,-2.3c-1.85,-0.3 -2.25,0.15 -2.25,2.3z"/>
 </g></g></g>
</g>
<defs>
<linearGradient id="paint0_linear_0_1" x1="0" y1="198" x2="1584" y2="198" gradientUnits="userSpaceOnUse">
<stop stop-color="#3D052C"/>
<stop offset="1"/>
</linearGradient>
<linearGradient id="paint1_linear_0_1" x1="323" y1="-224" x2="323" y2="352" gradientUnits="userSpaceOnUse">
<stop stop-color="#28F6F2" stop-opacity="0.4"/>
<stop offset="1" stop-color="#17908E" stop-opacity="0.7"/>
</linearGradient>
<linearGradient id="paint2_linear_0_1" x1="148.5" y1="38" x2="148.5" y2="140" gradientUnits="userSpaceOnUse">
<stop stop-color="white"/>
<stop offset="1" stop-color="#999999"/>
</linearGradient>
<linearGradient id="paint3_linear_0_1" x1="38" y1="260" x2="26" y2="260" gradientUnits="userSpaceOnUse">
<stop stop-color="#D9D9D9"/>
<stop offset="1" stop-color="#737373"/>
</linearGradient>
<linearGradient id="paint4_linear_0_1" x1="38" y1="97.5" x2="26" y2="97.5" gradientUnits="userSpaceOnUse">
<stop stop-color="#D9D9D9"/>
<stop offset="1" stop-color="#737373"/>
</linearGradient>
<linearGradient id="paint5_linear_0_1" x1="27.5" y1="434.5" x2="148.5" y2="787" gradientUnits="userSpaceOnUse">
<stop stop-color="#2E21BC"/>
<stop offset="1" stop-color="#150F56"/>
</linearGradient>
<clipPath id="clip0_0_1">
<rect width="1584" height="396" fill="white"/>
</clipPath>
</defs>
</svg>
